<svg id="be08b7ef-3a9d-4dc0-86f4-12fa18e0d344" data-name="Capa 1" xmlns="http://www.w3.org/2000/svg" viewBox="0 0 578.21 578.21">
  <defs>
    <style>
      .e1926f4f-742a-4428-be79-1634abc24568 {
        fill: #fff;
      }

      .ac4a7027-c43c-4d84-9479-b5c2abbac18e {
        fill: #575756;
        stroke: #575756;
        stroke-miterlimit: 10;
        stroke-width: 0.5px;
      }
    </style>
  </defs>
  <g>
    <rect class="e1926f4f-742a-4428-be79-1634abc24568" width="578.21" height="578.21" rx="139.94"/>
    <path class="ac4a7027-c43c-4d84-9479-b5c2abbac18e" d="M583,176c-17-22.3-63.36-19-123,4.27a201.6,201.6,0,0,1,38.63,32c17-4.69,28.83-4.41,33.5,1.72s1.67,17.48-7.55,32.39a207,207,0,0,1-15.23,21,178.8,178.8,0,0,0-15.72-24.62C434,164.26,321,148.52,241.73,207.66s-95.11,171.11-35.41,249.6A179.62,179.62,0,0,0,225.89,479a213.87,213.87,0,0,1-24.56,8.71c-17,4.69-28.84,4.44-33.53-1.73s-1.67-17.49,7.58-32.38A199.3,199.3,0,0,1,155,408c-39,50.36-55,93.64-38,115.94s63.37,19,123-4.24c8.77-3.43,17.84-7.29,27.13-11.56a182.49,182.49,0,0,0,83.13,20,180.12,180.12,0,0,0,108-35.82,177.59,177.59,0,0,0,68-177.7Q536.38,303.14,545,292C584,241.63,600,198.35,583,176ZM229.66,439.84c-50-65.74-36.7-159.52,29.66-209.06a151.8,151.8,0,0,1,211,29.38A148.72,148.72,0,0,1,488.44,291q-4.92,5.18-10.28,10.55c-26.48,26.47-60.87,56.07-100.08,85.34S300.67,440.79,267.7,458.7q-6.69,3.63-13.06,6.89A150,150,0,0,1,229.66,439.84Zm211,29.38a151.76,151.76,0,0,1-139.53,21.94c5.47-2.93,11-6,16.57-9.13a863.2,863.2,0,0,0,88.46-58.17A861.67,861.67,0,0,0,487,355.65q6.92-6.63,13.43-13.24A148.7,148.7,0,0,1,440.68,469.22Z" transform="translate(-60.89 -60.89)"/>
  </g>
</svg>
