<svg xmlns="http://www.w3.org/2000/svg" version="1.1" xmlns:xlink="http://www.w3.org/1999/xlink" xmlns:svgjs="http://svgjs.com/svgjs" width="512" height="512" x="0" y="0" viewBox="0 0 64 64" xml:space="preserve" class=""><g><linearGradient id="SVGID_1_" gradientUnits="userSpaceOnUse" x1="4.466" x2="54.707" y1="59.534" y2="9.293"><stop stop-opacity="1" stop-color="#0f9bf6" offset="0"></stop><stop stop-opacity="1" stop-color="#145fd1" offset="1"></stop></linearGradient><linearGradient id="SVGID_2_" gradientUnits="userSpaceOnUse" x1="4.466" x2="46.707" y1="59.534" y2="17.293"><stop offset="0" stop-color="#b3d8f4"></stop><stop offset="1" stop-color="#d1e7f8"></stop></linearGradient><linearGradient id="lg1"><stop offset="0" stop-color="#005ece"></stop><stop offset="1" stop-color="#2488ff"></stop></linearGradient><linearGradient id="SVGID_3_" gradientUnits="userSpaceOnUse" x1="36.466" x2="43.707" xlink:href="#lg1" y1="21.534" y2="14.293"></linearGradient><linearGradient id="SVGID_4_" gradientUnits="userSpaceOnUse" x1="44.466" x2="51.707" xlink:href="#lg1" y1="13.534" y2="6.293"></linearGradient><g><path d="m57.994 13.887c-.018-.151-.196-1.502-1.115-2.422l-10.343-10.343c-.919-.919-2.271-1.098-2.422-1.115-.038-.005-.076-.007-.114-.007h-25c-2.757 0-5 2.243-5 5v3h-3c-2.757 0-5 2.243-5 5v46c0 2.757 2.243 5 5 5h34c2.757 0 5-2.243 5-5v-3h3c2.757 0 5-2.243 5-5v-37c0-.038-.002-.076-.006-.113z" fill="url(#SVGID_1_)" data-original="url(#SVGID_1_)"></path></g><g><g><path d="m49.994 21.887c-.018-.151-.196-1.502-1.115-2.422l-10.343-10.343c-.919-.919-2.271-1.098-2.422-1.115-.038-.005-.076-.007-.114-.007h-25c-2.757 0-5 2.243-5 5v46c0 2.757 2.243 5 5 5h34c2.757 0 5-2.243 5-5v-37c0-.038-.002-.076-.006-.113z" fill="url(#SVGID_2_)" data-original="url(#SVGID_2_)"></path></g><g><path d="m48.879 19.465-10.343-10.343c-.919-.919-2.271-1.098-2.422-1.115-.286-.035-.567.058-.779.248-.213.189-.335.46-.335.745v9c0 2.757 2.243 5 5 5h9c.285 0 .557-.122.746-.334.19-.212.28-.496.248-.779-.018-.152-.196-1.503-1.115-2.422z" fill="url(#SVGID_3_)" data-original="url(#SVGID_3_)"></path></g><g><path d="m56.879 11.465-10.343-10.343c-.919-.919-2.271-1.098-2.422-1.115-.287-.033-.567.057-.779.248-.213.189-.335.46-.335.745v9c0 2.757 2.243 5 5 5h9c.285 0 .557-.122.746-.335.19-.212.28-.496.248-.779-.018-.151-.196-1.502-1.115-2.421z" fill="url(#SVGID_4_)" data-original="url(#SVGID_4_)"></path></g></g></g></svg>