<svg xmlns="http://www.w3.org/2000/svg" width="1866.667" height="1866.667" preserveAspectRatio="xMidYMid meet" version="1.0" viewBox="0 0 1400 1400"><metadata>Created by potrace 1.14, written by Peter Selinger 2001-2017</metadata><g fill="#000" stroke="none"><path d="M6778 10985 c-1 -1 -43 -6 -93 -9 -49 -4 -108 -9 -130 -11 -22 -3 -62 -7 -89 -9 -27 -3 -66 -8 -87 -11 -157 -21 -168 -23 -214 -30 -40 -6 -173 -31 -210 -39 -92 -20 -262 -69 -383 -111 -7 -2 -15 -4 -18 -4 -4 0 -10 -3 -13 -8 -3 -4 -24 -14 -46 -22 -131 -46 -477 -220 -625 -314 -58 -37 -114 -73 -125 -80 -11 -7 -22 -14 -25 -17 -3 -3 -21 -17 -40 -30 -19 -13 -41 -30 -48 -37 -7 -7 -16 -13 -20 -13 -4 0 -22 -14 -39 -31 -18 -16 -33 -28 -33 -25 0 3 -13 -7 -29 -22 -16 -15 -55 -49 -86 -77 -56 -50 -189 -183 -239 -240 -15 -16 -37 -41 -49 -55 -146 -161 -358 -463 -494 -700 -52 -93 -197 -376 -199 -390 0 -3 -10 -27 -23 -55 -37 -79 -56 -125 -86 -200 -15 -38 -35 -88 -45 -110 -42 -95 -247 -658 -256 -704 -3 -13 -9 -32 -14 -41 -5 -10 -6 -20 -3 -24 3 -3 1 -6 -5 -6 -7 0 -12 -9 -12 -20 0 -12 -7 -34 -15 -50 -9 -17 -13 -30 -9 -30 4 0 1 -7 -6 -15 -7 -9 -10 -18 -7 -22 4 -3 3 -11 -2 -17 -4 -6 -11 -20 -14 -31 -13 -48 -267 -795 -287 -845 -12 -30 -23 -59 -25 -65 -1 -5 -5 -17 -8 -25 -3 -8 -26 -71 -52 -140 -26 -69 -60 -153 -75 -187 -56 -121 -85 -178 -93 -184 -5 -3 -9 -12 -10 -20 -2 -8 -12 -30 -23 -49 -12 -19 -23 -39 -25 -45 -9 -23 -84 -151 -96 -163 -7 -7 -13 -20 -13 -28 0 -8 -3 -14 -7 -14 -5 0 -21 -23 -38 -50 -16 -28 -33 -50 -37 -50 -4 0 -8 -5 -8 -11 0 -7 -10 -21 -22 -33 -13 -12 -32 -33 -44 -47 -45 -53 -175 -169 -225 -201 -50 -32 -179 -100 -224 -119 -21 -9 -117 -36 -154 -44 -11 -3 -29 -7 -39 -9 -60 -15 -162 -35 -178 -35 -198 -5 -370 -15 -424 -26 -109 -22 -137 -28 -153 -37 -10 -5 -27 -11 -37 -13 -16 -3 -72 -30 -193 -92 -15 -8 -27 -18 -27 -23 0 -5 -8 -11 -18 -15 -16 -4 -48 -31 -127 -103 -20 -18 -84 -98 -110 -137 -28 -40 -104 -179 -106 -193 -1 -4 -6 -18 -11 -32 -6 -14 -11 -29 -12 -35 -2 -5 -5 -17 -9 -25 -24 -66 -36 -158 -35 -275 1 -71 4 -134 8 -140 3 -5 7 -23 9 -40 1 -16 7 -48 13 -70 5 -22 10 -41 9 -42 -1 -3 25 -74 41 -113 34 -81 98 -189 134 -224 8 -9 13 -16 10 -16 -4 0 85 -85 130 -125 19 -17 194 -130 202 -131 4 0 27 -9 52 -21 69 -31 168 -61 245 -72 89 -13 425 -5 585 14 19 2 55 6 80 9 25 3 56 7 70 10 14 3 41 7 60 10 306 48 676 163 941 290 171 83 339 177 359 201 7 8 16 15 21 15 11 0 158 104 210 149 8 6 25 20 39 31 112 89 303 279 395 396 17 21 50 63 75 94 25 31 54 69 65 84 11 15 41 55 66 89 25 34 76 107 112 162 37 55 71 105 77 112 5 7 10 17 10 22 0 6 11 26 25 46 13 20 68 125 121 233 52 109 100 205 105 214 5 10 9 25 9 33 0 8 5 15 10 15 6 0 10 7 10 14 0 8 16 50 36 93 19 43 34 78 33 78 -1 0 6 18 16 40 9 22 23 57 31 78 7 20 20 52 28 70 17 40 29 70 30 79 1 3 4 10 9 14 4 4 7 13 7 19 0 7 8 30 17 51 9 22 18 44 19 49 2 10 59 168 71 195 3 8 7 20 9 25 1 6 36 109 77 230 41 121 125 375 187 565 62 190 115 350 119 355 3 6 6 16 7 22 3 16 51 147 71 193 8 19 16 42 18 50 4 18 40 113 60 157 8 17 15 36 15 42 0 14 22 54 35 63 6 4 7 8 3 8 -4 0 30 73 76 163 91 178 102 198 170 307 26 41 52 84 59 95 38 62 114 152 202 240 98 99 185 175 199 175 4 0 26 13 49 29 70 47 189 108 257 130 80 27 272 78 320 86 19 3 43 8 52 11 10 3 39 6 66 8 27 2 53 5 58 8 11 7 559 3 634 -5 30 -3 66 -8 80 -11 14 -3 36 -8 50 -10 14 -3 36 -8 50 -11 14 -3 36 -8 50 -11 14 -3 34 -8 45 -11 11 -4 22 -8 25 -8 75 -18 207 -63 254 -87 168 -85 263 -155 399 -290 75 -75 137 -141 137 -146 0 -5 9 -17 20 -27 11 -10 20 -24 20 -32 0 -7 7 -16 15 -19 8 -4 12 -10 9 -15 -3 -5 0 -9 5 -9 6 0 11 -6 11 -14 0 -8 4 -16 8 -18 29 -12 295 -521 352 -673 12 -33 26 -69 30 -80 29 -68 244 -693 255 -740 1 -5 5 -17 8 -25 3 -8 20 -60 38 -115 17 -55 58 -181 91 -280 33 -99 61 -184 63 -190 1 -5 5 -17 8 -25 3 -8 15 -42 27 -75 11 -33 24 -67 27 -75 3 -8 7 -17 8 -20 4 -18 28 -88 35 -105 4 -11 25 -63 45 -115 20 -52 54 -138 76 -190 21 -52 39 -98 39 -102 0 -4 12 -33 26 -65 55 -121 77 -177 72 -179 -2 -1 5 -10 14 -20 9 -11 17 -21 17 -24 0 -20 109 -243 175 -360 21 -36 40 -73 43 -82 3 -10 9 -18 14 -18 5 0 9 -4 9 -9 0 -12 82 -145 92 -149 5 -2 8 -8 8 -13 0 -9 216 -298 265 -354 14 -16 49 -57 78 -90 63 -72 235 -244 302 -303 28 -24 59 -51 70 -61 11 -9 49 -39 85 -66 36 -28 67 -52 70 -55 3 -3 28 -20 55 -38 28 -17 55 -36 62 -42 7 -5 16 -10 22 -10 5 0 11 -3 13 -8 5 -12 128 -82 144 -82 8 0 14 -4 14 -8 0 -7 160 -86 255 -127 17 -6 44 -18 60 -25 17 -7 38 -17 49 -22 10 -5 30 -12 44 -14 13 -3 36 -11 51 -18 14 -7 49 -19 76 -26 28 -7 54 -17 60 -21 5 -5 20 -9 33 -9 13 0 31 -4 40 -9 9 -5 31 -12 47 -15 17 -3 57 -12 90 -21 65 -16 87 -21 185 -39 19 -3 46 -8 60 -11 14 -3 43 -7 65 -10 22 -3 51 -7 65 -9 26 -5 92 -12 200 -23 90 -8 444 -10 505 -1 186 25 411 141 551 282 70 72 141 164 136 178 -1 5 2 8 6 8 11 0 98 183 102 215 0 3 7 23 15 45 8 22 17 59 22 82 9 51 10 248 1 298 -17 99 -40 179 -73 255 -7 17 -16 40 -20 53 -3 12 -11 22 -16 22 -5 0 -9 6 -9 14 0 25 -96 159 -167 232 -175 182 -394 285 -635 299 -46 3 -92 7 -103 9 -11 2 -30 -1 -42 -5 -13 -5 -23 -5 -23 -1 0 4 -41 8 -90 9 -103 3 -296 39 -385 72 -54 21 -91 33 -102 34 -7 0 -13 4 -13 9 0 4 -6 8 -12 8 -7 0 -58 28 -114 61 -117 71 -287 228 -359 333 -116 169 -298 507 -364 676 -42 107 -51 131 -62 152 -5 10 -9 25 -9 33 0 8 -5 23 -10 33 -10 16 -99 264 -104 287 -1 6 -4 15 -8 20 -3 6 -9 26 -13 45 -4 19 -11 41 -16 50 -5 8 -23 60 -40 115 -16 55 -33 107 -36 115 -4 8 -7 17 -8 20 -5 22 -79 251 -88 275 -7 17 -12 33 -13 38 -1 4 -3 9 -4 12 -1 3 -3 8 -5 13 -1 4 -4 14 -7 22 -3 8 -11 35 -19 60 -7 25 -15 50 -18 55 -3 6 -6 12 -6 15 -1 3 -9 30 -20 60 -10 30 -20 60 -21 65 -1 6 -12 37 -24 70 -23 64 -27 76 -29 88 0 4 -8 21 -16 37 -9 17 -12 30 -8 30 4 0 2 5 -5 12 -7 7 -12 17 -12 24 0 6 -8 29 -17 50 -9 22 -18 44 -19 50 -1 6 -9 27 -17 45 -8 19 -21 52 -28 74 -7 22 -18 46 -23 54 -6 7 -11 18 -12 25 -2 11 -67 171 -96 236 -9 19 -42 94 -74 165 -67 152 -237 489 -254 505 -3 3 -26 38 -50 79 -25 40 -52 85 -61 100 -9 14 -46 67 -83 116 -109 146 -111 148 -184 234 -20 24 -44 53 -52 65 -38 54 -339 361 -419 426 -23 19 -52 43 -64 53 -12 10 -35 28 -50 40 -16 12 -41 32 -55 43 -36 28 -200 137 -244 162 -19 11 -46 26 -59 34 -13 7 -26 15 -29 18 -8 8 -229 115 -300 145 -115 49 -124 52 -210 83 -126 44 -212 72 -226 72 -7 0 -25 5 -41 12 -15 6 -37 13 -48 15 -11 2 -38 8 -60 14 -37 10 -48 13 -100 24 -11 3 -31 7 -45 10 -14 3 -50 10 -80 15 -30 6 -66 12 -80 15 -14 3 -41 8 -60 10 -19 2 -51 7 -70 10 -19 3 -55 7 -80 10 -25 3 -63 7 -85 10 -95 13 -196 17 -442 20 -143 2 -263 2 -265 0z" transform="translate(0.000000,1400.000000) scale(0.100000,-0.100000)"/></g></svg>