<svg xmlns="http://www.w3.org/2000/svg" xmlns:xlink="http://www.w3.org/1999/xlink" width="2000" height="2000" viewBox="0 0 2000 2000"><defs><linearGradient id="a" x1="1659.016" x2="-334.372" y1="183.802" y2="2727.09" gradientUnits="userSpaceOnUse"><stop offset="0" stop-color="#0f9bf6"/><stop offset=".233" stop-color="#1184e7"/><stop offset=".72" stop-color="#1548c2"/><stop offset="1" stop-color="#1823ab"/></linearGradient><linearGradient id="b" x1="1648.772" x2="-344.616" y1="175.772" y2="2719.06" xlink:href="#a"/><linearGradient id="c" x1="1648.768" x2="-344.62" y1="175.769" y2="2719.057" xlink:href="#a"/><linearGradient id="d" x1="1640.14" x2="-353.247" y1="169.007" y2="2712.295" xlink:href="#a"/></defs><rect width="2000" height="2000" fill="#fff" rx="485.586"/><path fill="url(#a)" d="M483.211,1528,639.1,1645.479a25.529,25.529,0,0,0,35.752-5.025l56.158-74.529-.614-.474a626.749,626.749,0,0,1-195.435-147.274l-.615-.457-56.16,74.532A25.529,25.529,0,0,0,483.211,1528Z"/><path fill="url(#b)" d="M1000.009,432.742c315.224,0,570.773,255.549,570.773,570.773s-255.549,570.774-570.773,570.774c-315.242,0-570.791-255.55-570.791-570.774S684.767,432.742,1000.009,432.742Zm0,1030.762c254.04,0,459.971-205.949,459.971-459.989s-205.931-459.988-459.971-459.988c-254.058,0-459.989,205.949-459.989,459.988S745.951,1463.5,1000.009,1463.5Z"/><path fill="url(#c)" d="M260.248,509.262c0,39.245,22.642,77.472,32.032,93.3,25.607,43.229,67.5,96.006,124.492,156.84,3.019,3.211,6.073,6.458,9.162,9.706q35.41,37.278,76.682,76.98,4.925,4.713,9.952,9.513,39.2,37.359,82.861,76.191c84.966,75.577,181.376,154.33,284.017,231.679s204.9,148.31,300.955,209.126q49.231,31.171,96.077,58.639,5.9,3.476,11.742,6.863c32.961,19.131,64.817,36.718,95.251,52.567,4,2.088,7.986,4.159,11.935,6.177,74.19,38.017,136.463,63.747,185.08,76.455,12.357,3.229,36.841,9.635,63.274,9.635,28.521,0,59.288-7.441,79.56-34.348,38.684-51.338-1.333-119.718-14.48-142.184-24.835-42.422-65.554-94.181-121.035-153.839q-6.74-7.266-13.76-14.62c-.93,2.3-1.895,4.6-2.861,6.9a617.768,617.768,0,0,1-51.513,96.884c21.781,26.59,35.226,46.336,43.527,60.429-15.621-4.036-37.876-11.373-68.749-24.607-24.5-10.478-54.444-24.712-90.793-43.966-3.6-1.9-7.284-3.861-11.023-5.88q-6.845-3.685-14.006-7.617c-23.5-12.9-47.985-26.959-73.224-42.036-104.5-62.413-222.149-142.219-338.849-230.152-116.717-87.968-225.887-179.06-314.68-262.324-21.43-20.1-41.685-39.737-60.552-58.763q-5.766-5.817-11.233-11.426-4.451-4.554-8.671-8.951c-28.521-29.609-50.425-54.462-67.257-75.12-21.237-26.029-34.418-45.406-42.6-59.306,15.849,4.107,38.56,11.6,70.17,25.221q14.349-16.48,29.908-32.049a628.6,628.6,0,0,1,54.883-48.811c-6.055-3.159-12.022-6.248-17.955-9.249-72.645-36.893-133.637-61.764-181.236-73.944-25.239-6.442-101.992-26.064-140.675,25.274C264.689,474.352,260.248,491.9,260.248,509.262Z"/><path fill="url(#d)" d="M1254.56,403.683c-15.167,3.657-17.053,24.475-2.78,30.777a626.811,626.811,0,0,1,227.194,171.2c9.991,11.984,29.484,4.434,28.819-11.154l-9.787-229.493a16.321,16.321,0,0,0-20.131-15.171Z"/></svg>