<svg xmlns="http://www.w3.org/2000/svg" width="933.333" height="933.333" preserveAspectRatio="xMidYMid meet" version="1.0" viewBox="0 0 700 700"><metadata>Created by potrace 1.14, written by Peter Selinger 2001-2017</metadata><g fill="#000" stroke="none"><path d="M4783 5680 c-222 -54 -409 -103 -418 -110 -16 -13 -20 -47 -7 -67 4 -7 59 -38 122 -70 251 -128 443 -275 653 -500 69 -74 88 -84 122 -59 23 17 23 -1 0 530 -9 192 -20 345 -25 352 -6 6 -18 14 -28 16 -9 3 -198 -39 -419 -92z" transform="translate(0.000000,700.000000) scale(0.100000,-0.100000)"/><path d="M1113 5496 c-93 -30 -172 -116 -194 -214 -47 -204 124 -492 579 -979 l124 -133 -21 -62 c-106 -329 -126 -677 -56 -1023 121 -601 523 -1119 1080 -1391 555 -271 1199 -271 1750 0 72 36 168 90 215 120 l84 57 236 -119 c433 -219 722 -311 902 -288 80 10 175 60 215 114 80 106 80 237 -1 407 -75 158 -239 381 -455 615 l-59 65 -38 -80 c-33 -73 -107 -210 -140 -261 -13 -18 -8 -27 47 -100 34 -43 67 -91 75 -106 l14 -26 -38 10 c-45 12 -202 75 -294 117 l-67 31 85 125 c533 792 429 1848 -249 2527 -257 257 -595 445 -944 527 -301 70 -654 69 -944 -5 -283 -71 -557 -207 -779 -388 -95 -77 -252 -236 -310 -315 -25 -33 -47 -60 -50 -61 -15 -1 -259 310 -260 332 0 8 65 -12 162 -50 l78 -30 92 94 c50 52 115 113 145 136 29 24 53 45 53 49 0 11 -354 176 -478 223 -177 67 -306 96 -422 95 -52 0 -114 -6 -137 -13z m2555 -407 c559 -60 1048 -407 1287 -912 113 -238 163 -486 152 -757 -10 -232 -65 -446 -165 -647 -47 -93 -143 -243 -196 -307 l-24 -29 -84 49 c-668 389 -1523 1017 -2163 1590 -88 78 -196 176 -240 217 -79 74 -80 74 -65 102 26 49 165 209 242 279 345 313 804 464 1256 415z m-1620 -1317 c558 -506 1409 -1149 2095 -1582 81 -51 147 -97 147 -101 0 -14 -181 -95 -295 -132 -188 -61 -264 -72 -495 -71 -233 0 -309 11 -503 74 -140 47 -266 108 -402 198 -133 87 -337 290 -424 422 -199 299 -293 627 -278 970 4 110 33 320 44 320 2 0 52 -44 111 -98z" transform="translate(0.000000,700.000000) scale(0.100000,-0.100000)"/><path d="M1762 1894 c-87 -116 -102 -141 -102 -173 0 -28 7 -44 28 -63 42 -40 550 -417 577 -430 45 -21 76 5 189 153 l105 139 -61 31 c-174 88 -359 223 -523 380 -56 54 -104 99 -106 99 -2 0 -50 -61 -107 -136z" transform="translate(0.000000,700.000000) scale(0.100000,-0.100000)"/></g></svg>