<svg xmlns="http://www.w3.org/2000/svg" xmlns:xlink="http://www.w3.org/1999/xlink" width="2091" height="2092" overflow="hidden"><defs><clipPath id="clip0"><rect width="2091" height="2092" x="1155" y="192"/></clipPath></defs><g clip-path="url(#clip0)" transform="translate(-1155 -192)"><path fill="#FAFAFA" fill-opacity=".149" fill-rule="evenodd" d="M3223.12 1175.68C3211.69 1170.93 3198.53 1173.55 3189.78 1182.33L3098.17 1274.28 3098.17 649.093C3098.17 632.135 3084.48 618.391 3067.58 618.391L2832.56 618.391 2917.87 532.762 2917.91 532.721 3000.11 450.213C3017.73 432.536 3027.43 409.021 3027.43 384.018 3027.43 359.015 3017.73 335.508 3000.11 317.823L2905.05 222.413C2887.44 204.735 2864.02 195 2839.1 195 2814.19 195 2790.77 204.735 2773.15 222.413L2690.91 304.962 2591.53 404.71 2378.64 618.387 1429.16 618.387 1429.16 314.66C1429.16 297.702 1415.47 283.959 1398.58 283.959 1265.92 283.967 1158 392.283 1158 525.433L1158 1829.43C1158 1831.69 1158.26 1833.9 1158.72 1836.03 1162.95 1892.52 1187.3 1945.01 1228 1984.86 1271.51 2027.45 1328.93 2050.9 1389.71 2050.9L2324.41 2050.9 2148.37 2227.59C2139.62 2236.37 2137.01 2249.57 2141.74 2261.05 2146.48 2272.52 2157.63 2280 2170 2280L3211.41 2280C3228.3 2280 3242 2266.26 3242 2249.3L3242 1204.05C3242 1191.63 3234.54 1180.43 3223.12 1175.68ZM2816.42 265.836C2828.92 253.278 2849.3 253.278 2861.8 265.836L2956.86 361.25C2969.37 373.804 2969.37 394.244 2956.86 406.802L2896.25 467.642 2755.8 326.675 2816.42 265.836ZM2712.54 370.094 2852.99 511.056 2796.86 567.39 2656.42 426.428 2712.54 370.094ZM2064.37 1277.11 1976.75 1308.16 1918.37 1249.57 1949.3 1161.63 2064.37 1277.11ZM2972.6 1715.52 2677.79 2010.48C2674.51 2013.76 2676.83 2019.38 2681.47 2019.38L2981.5 2019.38 2981.5 1719.21C2981.5 1714.56 2975.88 1712.24 2972.6 1715.52ZM1939.5 1107.19 2121.85 1289.63 2799.15 612 2616.8 429.563 1939.5 1107.19Z"/><path fill="#FAFAFA" fill-rule="evenodd" stroke="#FAFAFA" stroke-miterlimit="8" stroke-width="7.407" d="M3003.59 1667.84C2992.14 1663.08 2978.97 1665.71 2970.21 1674.49L2635.47 2010.08C2626.71 2018.86 2624.09 2032.07 2628.84 2043.54 2633.57 2055.02 2644.75 2062.5 2657.13 2062.5L2991.87 2062.5C3008.79 2062.5 3022.5 2048.75 3022.5 2031.79L3022.5 1696.21C3022.49 1683.79 3015.03 1672.59 3003.59 1667.84ZM2731.07 2001.09 2961.23 1770.34 2961.23 2001.09 2731.07 2001.09Z"/><path fill="#FAFAFA" fill-rule="evenodd" stroke="#FAFAFA" stroke-miterlimit="8" stroke-width="7.407" d="M3223.62 1176.18C3212.19 1171.43 3199.03 1174.05 3190.28 1182.83L3098.67 1274.78 3098.67 649.593C3098.67 632.635 3084.98 618.891 3068.08 618.891L2833.06 618.891 2918.37 533.262C2918.39 533.25 2918.4 533.233 2918.41 533.221L3000.61 450.713C3018.23 433.036 3027.93 409.521 3027.93 384.518 3027.93 359.516 3018.23 336.008 3000.61 318.323L2905.55 222.913C2887.95 205.235 2864.52 195.5 2839.6 195.5 2814.69 195.5 2791.27 205.235 2773.65 222.913L2691.41 305.462 2592.03 405.21 2379.14 618.887 1429.66 618.887 1429.66 315.16C1429.66 298.202 1415.97 284.459 1399.08 284.459 1266.42 284.468 1158.5 392.783 1158.5 525.933L1158.5 1829.93C1158.5 1832.19 1158.76 1834.4 1159.22 1836.53 1163.45 1893.02 1187.8 1945.51 1228.5 1985.36 1272 2027.95 1329.43 2051.4 1390.21 2051.4L2324.91 2051.4 2148.87 2228.09C2140.12 2236.87 2137.51 2250.07 2142.24 2261.55 2146.98 2273.02 2158.13 2280.5 2170.5 2280.5L3211.91 2280.5C3228.8 2280.5 3242.5 2266.76 3242.5 2249.8L3242.5 1204.55C3242.5 1192.13 3235.04 1180.93 3223.62 1176.18ZM2816.92 266.336C2829.42 253.778 2849.8 253.778 2862.3 266.336L2957.36 361.75C2969.87 374.305 2969.87 394.744 2957.36 407.302L2896.75 468.142 2756.3 327.175 2816.92 266.336ZM2713.04 370.595 2853.49 511.557 2797.36 567.89 2656.92 426.928 2713.04 370.595ZM3181.33 1549.52 3124.9 1549.52C3108 1549.52 3094.31 1563.27 3094.31 1580.22 3094.31 1597.18 3108 1610.92 3124.9 1610.92L3181.33 1610.92 3181.33 1703.44 3124.9 1703.44C3108 1703.44 3094.31 1717.19 3094.31 1734.15 3094.31 1751.1 3108 1764.85 3124.9 1764.85L3181.33 1764.85 3181.33 1857.36 3124.9 1857.36C3108 1857.36 3094.31 1871.1 3094.31 1888.06 3094.31 1905.02 3108 1918.76 3124.9 1918.76L3181.33 1918.76 3181.33 2011.28 3124.9 2011.28C3108 2011.28 3094.31 2025.03 3094.31 2041.98 3094.31 2058.94 3108 2072.68 3124.9 2072.68L3181.33 2072.68 3181.33 2219.11 2244.34 2219.11 2553.31 1909.01C2565.26 1897.01 2565.26 1877.57 2553.31 1865.59 2551.94 1864.2 2550.47 1863.01 2548.93 1861.95 2537.02 1853.77 2520.63 1854.97 2510.05 1865.59L2386.09 1990.01 1390.21 1990.01C1297.44 1990.01 1222.76 1917.31 1219.82 1824.37 1220 1818.53 1220.45 1812.75 1221.17 1807.03 1221.18 1807 1221.18 1806.97 1221.19 1806.93 1221.53 1804.21 1221.94 1801.51 1222.41 1798.82 1222.46 1798.52 1222.52 1798.2 1222.57 1797.9 1223 1795.5 1223.48 1793.12 1224 1790.74 1224.15 1790.08 1224.3 1789.41 1224.46 1788.76 1224.92 1786.75 1225.42 1784.75 1225.96 1782.76 1226.25 1781.68 1226.56 1780.62 1226.87 1779.54 1227.32 1777.98 1227.79 1776.43 1228.28 1774.88 1228.77 1773.34 1229.29 1771.82 1229.83 1770.3 1230.2 1769.23 1230.56 1768.16 1230.96 1767.11 1231.71 1765.09 1232.5 1763.11 1233.31 1761.13 1233.54 1760.56 1233.77 1759.99 1234.01 1759.42 1235.06 1756.97 1236.15 1754.55 1237.29 1752.15 1237.34 1752.05 1237.39 1751.95 1237.44 1751.85 1261.36 1702.15 1307.38 1665.1 1362.6 1653.6 1362.75 1653.57 1362.91 1653.54 1363.06 1653.5 1365.59 1652.98 1368.15 1652.54 1370.72 1652.13 1371.15 1652.06 1371.58 1651.97 1372.01 1651.9 1374.34 1651.55 1376.68 1651.27 1379.03 1651.01 1379.69 1650.93 1380.35 1650.83 1381.01 1650.77 1383.28 1650.54 1385.57 1650.39 1387.85 1650.24 1388.58 1650.19 1389.3 1650.12 1390.03 1650.08 1393.02 1649.93 1396.04 1649.86 1399.08 1649.86 1415.97 1649.86 1429.66 1636.12 1429.66 1619.15L1429.66 1396.54C1429.66 1379.59 1415.97 1365.85 1399.08 1365.85 1382.18 1365.85 1368.49 1379.59 1368.49 1396.54L1368.49 1590.39C1316.84 1596.94 1268.89 1620.07 1231.09 1657.12 1227.11 1661.02 1223.34 1665.07 1219.67 1669.19L1219.67 525.933C1219.67 437.113 1284.08 363.098 1368.48 348.481L1368.48 1273.75C1368.48 1290.7 1382.18 1304.45 1399.07 1304.45 1415.96 1304.45 1429.66 1290.7 1429.66 1273.75L1429.66 680.294 2317.97 680.294 2148.87 850.018C2136.92 862.012 2136.92 881.45 2148.87 893.438 2160.81 905.422 2180.18 905.422 2192.13 893.438L2413.44 671.302C2413.45 671.297 2413.45 671.287 2413.46 671.282L2613.66 470.344 2754.1 611.309 2737.62 627.846C2737.61 627.859 2737.59 627.871 2737.58 627.884L2120.81 1246.94 1980.37 1105.98 2101.94 983.959C2113.89 971.96 2113.89 952.527 2101.94 940.538 2089.99 928.555 2070.63 928.555 2058.69 940.538L1915.48 1084.27C1914.71 1085.04 1914 1085.85 1913.33 1086.68 1913.1 1086.96 1912.91 1087.26 1912.69 1087.55 1912.26 1088.13 1911.84 1088.7 1911.44 1089.31 1911.22 1089.66 1911.02 1090.02 1910.8 1090.38 1910.47 1090.96 1910.14 1091.54 1909.84 1092.13 1909.65 1092.51 1909.47 1092.9 1909.3 1093.3 1909.02 1093.9 1908.77 1094.52 1908.54 1095.13 1908.46 1095.34 1908.35 1095.55 1908.27 1095.76L1848.68 1265.21 1808.05 1380.74C1807.51 1382.27 1807.12 1383.84 1806.84 1385.41L1705.11 1385.41C1688.22 1385.41 1674.52 1399.15 1674.52 1416.11 1674.52 1433.07 1688.22 1446.81 1705.11 1446.81L2552.2 1446.81C2569.09 1446.81 2582.79 1433.07 2582.79 1416.11 2582.79 1399.15 2569.09 1385.41 2552.2 1385.41L1944.45 1385.41 2130.99 1319.31C2131.15 1319.26 2131.29 1319.18 2131.44 1319.12 2132.17 1318.85 2132.88 1318.54 2133.59 1318.23 2133.87 1318.1 2134.15 1317.97 2134.42 1317.84 2135.15 1317.47 2135.87 1317.06 2136.58 1316.63 2136.81 1316.49 2137.05 1316.36 2137.27 1316.22 2138.01 1315.75 2138.72 1315.23 2139.43 1314.68 2139.6 1314.55 2139.79 1314.43 2139.96 1314.29 2140.81 1313.6 2141.64 1312.87 2142.43 1312.07L2771.88 680.299 3037.49 680.299 3037.49 1336.19 2599.95 1775.35C2588 1787.35 2588 1806.78 2599.95 1818.77 2600.69 1819.52 2601.47 1820.23 2602.27 1820.88 2607.88 1825.47 2614.73 1827.77 2621.58 1827.77 2628.43 1827.77 2635.28 1825.47 2640.88 1820.88 2641.68 1820.23 2642.46 1819.52 2643.21 1818.77L2643.22 1818.76 3181.33 1278.65 3181.33 1549.52ZM2064.87 1277.61 1977.25 1308.66 1918.87 1250.07 1949.8 1162.13 2064.87 1277.61Z"/></g></svg>